<svg id="Group_25" data-name="Group 25" xmlns="http://www.w3.org/2000/svg" xmlns:xlink="http://www.w3.org/1999/xlink" width="97.932" height="7.997" viewBox="0 0 97.932 7.997">
  <defs>
    <clipPath id="clip-path">
      <path id="Path_18" data-name="Path 18" d="M48.966,0A166.613,166.613,0,0,0,31.607.911q-1.163.122-2.323.265-2.6.312-5.179.712A124.969,124.969,0,0,0,0,8,202.523,202.523,0,0,1,24.363,3.82q2.46-.271,4.922-.484,1.16-.1,2.323-.19,8.665-.665,17.359-.658,8.352.01,16.694.611,1.164.085,2.323.183,2.8.234,5.586.54A203.4,203.4,0,0,1,97.932,8,124.626,124.626,0,0,0,73.827,1.884q-2.914-.451-5.844-.792C67.209,1,66.436.916,65.66.839A165.893,165.893,0,0,0,48.966,0Z" fill="#4FB96F"/>
    </clipPath>
  </defs>
  <g id="Group_8" data-name="Group 8" clip-path="url(#clip-path)">
    <rect id="Rectangle_9" data-name="Rectangle 9" width="97.808" height="25.138" transform="translate(-1.388 0.249) rotate(-10.154)" fill="#4FB96F"/>
  </g>
</svg>
