<svg xmlns="http://www.w3.org/2000/svg" xmlns:xlink="http://www.w3.org/1999/xlink" width="100.988" height="12.539" viewBox="0 0 100.988 12.539">
  <defs>
    <clipPath id="clip-path">
      <rect id="Rectangle_20604" data-name="Rectangle 20604" width="100.988" height="12.539" fill="none"/>
    </clipPath>
  </defs>
  <g id="Group_49698" data-name="Group 49698" transform="translate(0 0)">
    <g id="Group_49697" data-name="Group 49697" transform="translate(0 0)" clip-path="url(#clip-path)">
      <path id="Path_131708" data-name="Path 131708" d="M3.463,1.732A1.731,1.731,0,1,1,1.731,0,1.732,1.732,0,0,1,3.463,1.732" transform="translate(0 0)" fill="#ffffff"/>
      <path id="Path_131709" data-name="Path 131709" d="M25.173,1.732A1.731,1.731,0,1,1,23.441,0a1.732,1.732,0,0,1,1.732,1.732" transform="translate(-10.245 0)" fill="#ffffff"/>
      <path id="Path_131710" data-name="Path 131710" d="M46.882,1.732A1.731,1.731,0,1,1,45.15,0a1.732,1.732,0,0,1,1.732,1.732" transform="translate(-20.49 0)" fill="#ffffff"/>
      <path id="Path_131711" data-name="Path 131711" d="M68.592,1.732A1.731,1.731,0,1,1,66.86,0a1.732,1.732,0,0,1,1.732,1.732" transform="translate(-30.735 0)" fill="#ffffff"/>
      <path id="Path_131712" data-name="Path 131712" d="M90.3,1.732A1.731,1.731,0,1,1,88.57,0,1.732,1.732,0,0,1,90.3,1.732" transform="translate(-40.98 0)" fill="#ffffff"/>
      <path id="Path_131713" data-name="Path 131713" d="M112.011,1.732A1.731,1.731,0,1,1,110.279,0a1.732,1.732,0,0,1,1.732,1.732" transform="translate(-51.224 0)" fill="#ffffff"/>
      <path id="Path_131714" data-name="Path 131714" d="M133.72,1.732A1.731,1.731,0,1,1,131.988,0a1.732,1.732,0,0,1,1.732,1.732" transform="translate(-61.469 0)" fill="#ffffff"/>
      <path id="Path_131715" data-name="Path 131715" d="M155.43,1.732A1.731,1.731,0,1,1,153.7,0a1.732,1.732,0,0,1,1.732,1.732" transform="translate(-71.714 0)" fill="#ffffff"/>
      <path id="Path_131716" data-name="Path 131716" d="M177.14,1.732A1.731,1.731,0,1,1,175.408,0a1.732,1.732,0,0,1,1.732,1.732" transform="translate(-81.959 0)" fill="#ffffff"/>
      <path id="Path_131717" data-name="Path 131717" d="M14.462,18.919a1.731,1.731,0,1,1-1.732-1.732,1.732,1.732,0,0,1,1.732,1.732" transform="translate(-5.19 -8.111)" fill="#ffffff"/>
      <path id="Path_131718" data-name="Path 131718" d="M36.172,18.919a1.731,1.731,0,1,1-1.732-1.732,1.732,1.732,0,0,1,1.732,1.732" transform="translate(-15.436 -8.111)" fill="#ffffff"/>
      <path id="Path_131719" data-name="Path 131719" d="M57.881,18.919a1.731,1.731,0,1,1-1.732-1.732,1.732,1.732,0,0,1,1.732,1.732" transform="translate(-25.68 -8.111)" fill="#ffffff"/>
      <path id="Path_131720" data-name="Path 131720" d="M79.591,18.919a1.731,1.731,0,1,1-1.732-1.732,1.732,1.732,0,0,1,1.732,1.732" transform="translate(-35.925 -8.111)" fill="#ffffff"/>
      <path id="Path_131721" data-name="Path 131721" d="M101.3,18.919a1.731,1.731,0,1,1-1.732-1.732,1.732,1.732,0,0,1,1.732,1.732" transform="translate(-46.17 -8.111)" fill="#ffffff"/>
      <path id="Path_131722" data-name="Path 131722" d="M123.01,18.919a1.731,1.731,0,1,1-1.732-1.732,1.732,1.732,0,0,1,1.732,1.732" transform="translate(-56.415 -8.111)" fill="#ffffff"/>
      <path id="Path_131723" data-name="Path 131723" d="M144.719,18.919a1.731,1.731,0,1,1-1.732-1.732,1.732,1.732,0,0,1,1.732,1.732" transform="translate(-66.66 -8.111)" fill="#ffffff"/>
      <path id="Path_131724" data-name="Path 131724" d="M166.429,18.919a1.731,1.731,0,1,1-1.732-1.732,1.732,1.732,0,0,1,1.732,1.732" transform="translate(-76.905 -8.111)" fill="#ffffff"/>
      <path id="Path_131725" data-name="Path 131725" d="M188.138,18.919a1.731,1.731,0,1,1-1.732-1.732,1.732,1.732,0,0,1,1.732,1.732" transform="translate(-87.149 -8.111)" fill="#ffffff"/>
    </g>
  </g>
</svg>
