<svg xmlns="http://www.w3.org/2000/svg" width="15.849" height="15" viewBox="0 0 15.849 15">
  <g id="Group_50233" data-name="Group 50233" transform="translate(-0.001 -13.707)">
    <g id="Group_50232" data-name="Group 50232" transform="translate(0.001 13.707)">
      <path id="Path_132352" data-name="Path 132352" d="M14.365,15.188a5.072,5.072,0,0,0-7.165,0L1.059,21.33a3.619,3.619,0,0,0,5.118,5.118l5.63-5.63a2.171,2.171,0,1,0-3.071-3.071L5.054,21.428a.724.724,0,1,0,1.024,1.024l3.682-3.681a.724.724,0,1,1,1.024,1.023l-5.63,5.63a2.171,2.171,0,0,1-3.071-3.071l6.142-6.141a3.619,3.619,0,1,1,5.118,5.118L7.2,27.471a.724.724,0,0,0,1.024,1.024l6.141-6.142a5.066,5.066,0,0,0,0-7.165Z" transform="translate(-0.001 -13.707)" fill="#1C3495"/>
    </g>
  </g>
</svg>