<svg xmlns="http://www.w3.org/2000/svg" width="46.637" height="46.637" viewBox="0 0 46.637 46.637">
  <g id="Group_49831" data-name="Group 49831" transform="translate(-1278.036 -599.191)">
    <g id="Ellipse_2468" data-name="Ellipse 2468" transform="translate(1282.866 603.87)" fill="#fff" stroke="#707070" stroke-width="1">
      <circle cx="18.975" cy="18.975" r="18.975" stroke="none"/>
      <circle cx="18.975" cy="18.975" r="18.475" fill="none"/>
    </g>
    <g id="Group_49830" data-name="Group 49830" transform="translate(1278.036 599.191)">
      <g id="Group_49829" data-name="Group 49829" transform="translate(0 0)">
        <path id="Path_131962" data-name="Path 131962" d="M39.8,6.827a23.319,23.319,0,1,0,6.832,16.486A23.319,23.319,0,0,0,39.8,6.827Zm-4.49,25.655,0,0v-.008L34.13,33.651a6.218,6.218,0,0,1-5.869,1.679,20.662,20.662,0,0,1-6-2.689,27.724,27.724,0,0,1-4.734-3.817,27.938,27.938,0,0,1-3.537-4.291,21.762,21.762,0,0,1-2.658-5.379,6.218,6.218,0,0,1,1.555-6.35l1.384-1.384a.987.987,0,0,1,1.4,0l0,0,4.368,4.368a.987.987,0,0,1,0,1.4l0,0-2.565,2.565a2.091,2.091,0,0,0-.218,2.721,30,30,0,0,0,3.07,3.583,29.814,29.814,0,0,0,4.042,3.4,2.106,2.106,0,0,0,2.689-.233l2.48-2.518a.987.987,0,0,1,1.4,0l0,0,4.376,4.384A.987.987,0,0,1,35.315,32.482Z" transform="translate(0 0)" fill="#41b2c6"/>
      </g>
    </g>
  </g>
</svg>
