<svg xmlns="http://www.w3.org/2000/svg" width="16.212" height="16.212" viewBox="0 0 16.212 16.212">
  <g id="Group_42149" data-name="Group 42149" transform="translate(0)">
    <path id="Path_130838" data-name="Path 130838" d="M4.124,138.268l-1.4.109a1.253,1.253,0,0,0-.955.562l-1.62,2.45a.868.868,0,0,0,.591,1.337l1.286.2A11.516,11.516,0,0,1,4.124,138.268Z" transform="translate(0 -133.89)" fill="#fff"/>
    <path id="Path_130839" data-name="Path 130839" d="M226.682,383.866l.2,1.286a.867.867,0,0,0,1.337.591l2.45-1.62a1.253,1.253,0,0,0,.562-.955l.108-1.4A11.515,11.515,0,0,1,226.682,383.866Z" transform="translate(-219.505 -369.676)" fill="#fff"/>
    <path id="Path_130840" data-name="Path 130840" d="M95.785,241.292a.817.817,0,0,0,.134-.011,9.306,9.306,0,0,0,1.929-.547l-5.286-5.286a9.3,9.3,0,0,0-.547,1.928.829.829,0,0,0,.233.721l2.949,2.949A.832.832,0,0,0,95.785,241.292Z" transform="translate(-89.091 -227.993)" fill="#fff"/>
    <path id="Path_130841" data-name="Path 130841" d="M133.94,7.188A12.806,12.806,0,0,0,135.214.805a.832.832,0,0,0-.786-.786c-.2-.011-.441-.019-.711-.019a12.548,12.548,0,0,0-5.672,1.293,12.9,12.9,0,0,0-5.132,5.245.478.478,0,0,1,.044.038l5.7,5.7a.477.477,0,0,1,.038.044A12.9,12.9,0,0,0,133.94,7.188Zm-5.493-3.76a2.375,2.375,0,1,1-.7,1.679,2.377,2.377,0,0,1,.7-1.679Z" transform="translate(-119.021)" fill="#fff"/>
    <path id="Path_130842" data-name="Path 130842" d="M306.148,118.726a1.425,1.425,0,1,0-.417-1.008A1.426,1.426,0,0,0,306.148,118.726Z" transform="translate(-296.051 -112.612)" fill="#fff"/>
    <path id="Path_130843" data-name="Path 130843" d="M.779,345.465a.473.473,0,0,0,.336-.139l1.551-1.551a.475.475,0,0,0-.672-.672L.444,344.654a.475.475,0,0,0,.336.811Z" transform="translate(-0.295 -332.105)" fill="#fff"/>
    <path id="Path_130844" data-name="Path 130844" d="M3.8,387.985a.475.475,0,0,0-.672,0L.143,390.966a.475.475,0,1,0,.672.672L3.8,388.656A.475.475,0,0,0,3.8,387.985Z" transform="translate(-0.004 -375.565)" fill="#fff"/>
    <path id="Path_130845" data-name="Path 130845" d="M91.756,432.866l-1.551,1.551a.475.475,0,1,0,.672.672l1.551-1.551a.475.475,0,1,0-.672-.672Z" transform="translate(-87.215 -419.025)" fill="#fff"/>
  </g>
</svg>
