<svg xmlns="http://www.w3.org/2000/svg" width="98.574" height="72.78" viewBox="0 0 98.574 72.78">
  <g id="Group_50305" data-name="Group 50305" transform="translate(0 -25.905)" opacity="0.04">
    <path id="Path_132360" data-name="Path 132360" d="M0,59.261H23.909c-.409,17.425-5.351,19.4-11.558,19.967l-2.394.3v19.16l2.759-.148c8.105-.456,17.067-1.917,23.045-9.3C41,82.769,43.313,72.2,43.313,55.973V25.9H0Z" transform="translate(0 0)" fill="#1c3495"/>
    <path id="Path_132361" data-name="Path 132361" d="M111,25.9V59.261h23.59c-.409,17.425-5.191,19.4-11.4,19.967l-2.234.3v19.16l2.6-.148c8.105-.456,17.147-1.917,23.126-9.3,5.24-6.47,7.631-17.04,7.631-33.267V25.9Z" transform="translate(-55.739 0)" fill="#1c3495"/>
  </g>
</svg>
