<svg xmlns="http://www.w3.org/2000/svg" width="33.942" height="36.227" viewBox="0 0 33.942 36.227">
  <g id="Artboard31" transform="translate(-15.027 -7)">
    <path id="Path_132368" data-name="Path 132368" d="M30.483,38.437V11.79a.584.584,0,1,1,1.169,0v1.2h6.058V11.819a2.445,2.445,0,1,1,1.169,0v1.756a.584.584,0,0,1-.584.584H31.651v2.5h4.769a2.445,2.445,0,1,1,0,1.169H31.651v2.5h9.258l3.585-3.585a2.443,2.443,0,1,1,.865.787l-3.8,3.795a.584.584,0,0,1-.413.171h-9.5v2.968H42.305a2.445,2.445,0,1,1-.031,1.169H31.651V28.6h9.5a.584.584,0,0,1,.413.171l3.658,3.658a2.444,2.444,0,1,1-.812.841l-3.5-3.5H31.651v2.243h4.78a2.445,2.445,0,1,1-.021,1.169h-4.76v2.243h6.642a.584.584,0,0,1,.584.584v2.4a2.445,2.445,0,1,1-1.169,0V36.593H31.651v1.844a.584.584,0,0,1-1.169,0Zm7.811-27.716a1.276,1.276,0,1,0-1.276-1.276A1.277,1.277,0,0,0,38.293,10.721Zm-.774,6.521A1.276,1.276,0,1,0,38.8,15.966,1.277,1.277,0,0,0,37.519,17.243Zm8.166-.9a1.278,1.278,0,1,0-.015-.013ZM45.6,33.625a1.28,1.28,0,1,0,.013-.014l-.013.014Zm-7.3,5.881a1.276,1.276,0,1,0,1.276,1.276A1.277,1.277,0,0,0,38.293,39.506Zm.5-8.143a1.276,1.276,0,1,0,1.276,1.276A1.277,1.277,0,0,0,38.8,31.363Zm5.868-7.526a1.276,1.276,0,1,0,1.276,1.276A1.277,1.277,0,0,0,44.663,23.837ZM15.027,22.25a3.3,3.3,0,0,1,2.114-3.067,3.281,3.281,0,0,1,3.23-2.757q.119,0,.235.008a3.289,3.289,0,0,1,2.44-1.955,3.27,3.27,0,0,1,6.248,1.354v6.6a3.266,3.266,0,0,1-1.4,2.685,3.265,3.265,0,0,1,1.4,2.685v6.6a3.271,3.271,0,0,1-6.248,1.353,3.294,3.294,0,0,1-2.439-1.955q-.117.009-.235.009a3.283,3.283,0,0,1-3.23-2.757,3.3,3.3,0,0,1-2.114-3.067c0,.141,0,.122,0,0h0a3.449,3.449,0,0,1,1.532-2.864,3.449,3.449,0,0,1-1.532-2.864C15.029,22.391,15.029,22.372,15.027,22.25Zm3.45,3.448a2.285,2.285,0,0,0-2.281,2.28h0s0,.006,0,.008a2.106,2.106,0,0,0,1.026,1.8,3.277,3.277,0,0,1,1.054-1.624.584.584,0,1,1,.749.9,2,2,0,0,0,1.345,3.57,2.138,2.138,0,0,0,.5-.06.584.584,0,0,1,.7.434,2.12,2.12,0,0,0,1.179,1.435c0-.016,0-.031,0-.047a3.262,3.262,0,0,1,.815-2.159.584.584,0,0,1,.878.771,2.1,2.1,0,0,0-.439,1.983.58.58,0,0,1,.028.088,2.1,2.1,0,0,0,4.089-.683V27.8a2.1,2.1,0,0,0-3.956-.985.584.584,0,0,1-1.032-.548,3.266,3.266,0,0,1,.383-.568Zm4.276-9.913a2.118,2.118,0,0,0-1.179,1.435.584.584,0,0,1-.709.433,2.047,2.047,0,0,0-.494-.059,2,2,0,0,0-1.344,3.571.584.584,0,0,1-.751.9,3.288,3.288,0,0,1-1.053-1.624,2.1,2.1,0,0,0-1.027,1.8h0s0,.007,0,.01h0a2.285,2.285,0,0,0,2.281,2.28h5.042a3.264,3.264,0,0,1-.383-.568.584.584,0,0,1,1.032-.548,2.1,2.1,0,0,0,3.956-.985v-6.6a2.1,2.1,0,0,0-4.089-.683.576.576,0,0,1-.028.089,2.1,2.1,0,0,0,.439,1.981.584.584,0,0,1-.878.771,3.261,3.261,0,0,1-.815-2.158q0-.024,0-.048Zm2.41,13.484a.584.584,0,0,1,.8.849A3.271,3.271,0,0,1,20.5,28.33a.584.584,0,1,1,1.15-.21,2.1,2.1,0,0,0,1.523,1.655h0a2.1,2.1,0,0,0,1.991-.505Zm.8-9.075a.584.584,0,1,1-.8.848,2.1,2.1,0,0,0-1.991-.505h0a2.1,2.1,0,0,0-1.523,1.655.584.584,0,0,1-1.15-.21A3.271,3.271,0,0,1,25.967,20.2Z" fill="#1c3495" fill-rule="evenodd"/>
  </g>
</svg>
