<svg id="Group_50375" data-name="Group 50375" xmlns="http://www.w3.org/2000/svg" width="36" height="36" viewBox="0 0 36 36">
  <path id="Path_132373" data-name="Path 132373" d="M34.2,16.2a1.8,1.8,0,0,0-1.69,1.2H28.8V15h3.6a.6.6,0,0,0,0-1.2H28.8V11.4H33a1.2,1.2,0,0,0,1.2-1.2V8.89a1.8,1.8,0,1,0-1.2,0V10.2H28.8V9.6a2.4,2.4,0,0,0-2.4-2.4h-.6V3h1.31a1.8,1.8,0,1,0,0-1.2H25.8A1.2,1.2,0,0,0,24.6,3V7.2H22.2V3.6a.6.6,0,0,0-1.2,0V7.2H18.6V3.49a1.8,1.8,0,1,0-1.2,0V7.2H15V3.6a.6.6,0,0,0-1.2,0V7.2H11.4V3a1.2,1.2,0,0,0-1.2-1.2H8.89a1.8,1.8,0,1,0,0,1.2H10.2V7.2H9.6A2.4,2.4,0,0,0,7.2,9.6v.6H3V8.89a1.8,1.8,0,1,0-1.2,0V10.2A1.2,1.2,0,0,0,3,11.4H7.2v2.4H3.6a.6.6,0,0,0,0,1.2H7.2v2.4H3.49a1.8,1.8,0,1,0,0,1.2H7.2V21H3.6a.6.6,0,0,0,0,1.2H7.2v2.4H3a1.2,1.2,0,0,0-1.2,1.2v1.31a1.8,1.8,0,1,0,1.2,0V25.8H7.2v.6a2.4,2.4,0,0,0,2.4,2.4h.6V33H8.89a1.8,1.8,0,1,0,0,1.2H10.2A1.2,1.2,0,0,0,11.4,33V28.8h2.4v3.6a.6.6,0,0,0,1.2,0V28.8h2.4v3.71a1.8,1.8,0,1,0,1.2,0V28.8H21v3.6a.6.6,0,0,0,1.2,0V28.8h2.4V33a1.2,1.2,0,0,0,1.2,1.2h1.31a1.8,1.8,0,1,0,0-1.2H25.8V28.8h.6a2.4,2.4,0,0,0,2.4-2.4v-.6H33v1.31a1.8,1.8,0,1,0,1.2,0V25.8A1.2,1.2,0,0,0,33,24.6H28.8V22.2h3.6a.6.6,0,0,0,0-1.2H28.8V18.6h3.71a1.8,1.8,0,1,0,1.69-2.4Zm-.6-9.6a.6.6,0,1,1-.6.6A.6.6,0,0,1,33.6,6.6ZM28.8,1.8a.6.6,0,1,1-.6.6A.6.6,0,0,1,28.8,1.8ZM18,1.2a.6.6,0,1,1-.6.6A.6.6,0,0,1,18,1.2ZM7.2,3a.6.6,0,1,1,.6-.6A.6.6,0,0,1,7.2,3ZM2.4,6.6a.6.6,0,1,1-.6.6A.6.6,0,0,1,2.4,6.6Zm-.6,12a.6.6,0,1,1,.6-.6A.6.6,0,0,1,1.8,18.6Zm.6,10.8a.6.6,0,1,1,.6-.6A.6.6,0,0,1,2.4,29.4Zm4.8,4.8a.6.6,0,1,1,.6-.6A.6.6,0,0,1,7.2,34.2Zm10.8.6a.6.6,0,1,1,.6-.6A.6.6,0,0,1,18,34.8ZM28.8,33a.6.6,0,1,1-.6.6A.6.6,0,0,1,28.8,33Zm4.8-3.6a.6.6,0,1,1,.6-.6A.6.6,0,0,1,33.6,29.4Zm-6-3a1.2,1.2,0,0,1-1.2,1.2H9.6a1.2,1.2,0,0,1-1.2-1.2V9.6A1.2,1.2,0,0,1,9.6,8.4H26.4a1.2,1.2,0,0,1,1.2,1.2Zm6.6-7.8a.6.6,0,1,1,.6-.6A.6.6,0,0,1,34.2,18.6Z" fill="#1c3495"/>
  <path id="Path_132374" data-name="Path 132374" d="M22.906,21.726a.929.929,0,0,0-1.814,0L19.014,31.07a.6.6,0,0,0,1.172.26l.7-3.13h2.235l.7,3.13a.6.6,0,0,0,.586.47.646.646,0,0,0,.131-.014.6.6,0,0,0,.456-.716ZM21.15,27,22,23.177,22.851,27h-1.7Z" transform="translate(-7.6 -8.4)" fill="#1c3495"/>
  <path id="Path_132375" data-name="Path 132375" d="M35.2,22.2a.6.6,0,1,0,0-1.2H31.6a.6.6,0,0,0,0,1.2h1.2v8.4H31.6a.6.6,0,1,0,0,1.2h3.6a.6.6,0,1,0,0-1.2H34V22.2Z" transform="translate(-12.4 -8.4)" fill="#1c3495"/>
</svg>
