<svg xmlns="http://www.w3.org/2000/svg" width="36.544" height="36" viewBox="0 0 36.544 36">
  <g id="Group_50388" data-name="Group 50388" transform="translate(0 -3.81)">
    <g id="Group_50377" data-name="Group 50377" transform="translate(2.111 3.81)">
      <g id="Group_50376" data-name="Group 50376">
        <path id="Path_132376" data-name="Path 132376" d="M61.167,17.935a2.41,2.41,0,0,0-1.336-4.111l-8-1.162a.482.482,0,0,1-.363-.264L47.9,5.153a2.41,2.41,0,0,0-4.322,0L40,12.4a.482.482,0,0,1-.363.264l-8,1.162A2.41,2.41,0,0,0,30.3,17.935l5.786,5.64a.482.482,0,0,1,.139.427l-1.366,7.964a2.41,2.41,0,0,0,3.5,2.541l7.152-3.76a.482.482,0,0,1,.449,0l7.152,3.76a2.41,2.41,0,0,0,3.5-2.541L55.243,24a.482.482,0,0,1,.139-.427Zm-7.825,6.393,1.366,7.964a.482.482,0,0,1-.7.508l-7.152-3.76a2.41,2.41,0,0,0-2.243,0L37.463,32.8a.482.482,0,0,1-.7-.508l1.366-7.964a2.409,2.409,0,0,0-.693-2.133l-5.786-5.64a.482.482,0,0,1,.267-.822l8-1.162a2.41,2.41,0,0,0,1.815-1.318L45.3,6.007a.482.482,0,0,1,.864,0h0l3.576,7.246a2.409,2.409,0,0,0,1.814,1.318l8,1.162a.482.482,0,0,1,.267.822l-5.786,5.64A2.409,2.409,0,0,0,53.343,24.328Z" transform="translate(-29.574 -3.81)" fill="#1c3495"/>
      </g>
    </g>
    <g id="Group_50379" data-name="Group 50379" transform="translate(26.98 4.969)">
      <g id="Group_50378" data-name="Group 50378">
        <path id="Path_132377" data-name="Path 132377" d="M380.555,20.229a.964.964,0,0,0-1.346.213l-1.023,1.408a.964.964,0,0,0,1.56,1.133l1.023-1.408A.964.964,0,0,0,380.555,20.229Z" transform="translate(-378.001 -20.045)" fill="#1c3495"/>
      </g>
    </g>
    <g id="Group_50381" data-name="Group 50381" transform="translate(6.609 4.963)">
      <g id="Group_50380" data-name="Group 50380">
        <path id="Path_132378" data-name="Path 132378" d="M95.357,21.772l-1.023-1.408a.964.964,0,1,0-1.56,1.133L93.8,22.905a.964.964,0,1,0,1.56-1.133Z" transform="translate(-92.59 -19.966)" fill="#1c3495"/>
      </g>
    </g>
    <g id="Group_50383" data-name="Group 50383" transform="translate(0 24.772)">
      <g id="Group_50382" data-name="Group 50382">
        <path id="Path_132379" data-name="Path 132379" d="M3.537,298.16a.964.964,0,0,0-1.215-.619l-1.656.538a.964.964,0,1,0,.6,1.834l1.656-.538A.964.964,0,0,0,3.537,298.16Z" transform="translate(0 -297.493)" fill="#1c3495"/>
      </g>
    </g>
    <g id="Group_50385" data-name="Group 50385" transform="translate(17.309 36.141)">
      <g id="Group_50384" data-name="Group 50384">
        <path id="Path_132380" data-name="Path 132380" d="M243.463,456.786a.964.964,0,0,0-.964.964v1.741a.964.964,0,0,0,1.928,0V457.75A.964.964,0,0,0,243.463,456.786Z" transform="translate(-242.499 -456.786)" fill="#1c3495"/>
      </g>
    </g>
    <g id="Group_50387" data-name="Group 50387" transform="translate(32.96 24.773)">
      <g id="Group_50386" data-name="Group 50386">
        <path id="Path_132381" data-name="Path 132381" d="M464.7,298.1l-1.656-.538a.964.964,0,0,0-.6,1.834l1.656.538a.964.964,0,0,0,.6-1.834Z" transform="translate(-461.783 -297.513)" fill="#1c3495"/>
      </g>
    </g>
  </g>
</svg>
