<svg xmlns="http://www.w3.org/2000/svg" width="9.789" height="11.572" viewBox="0 0 9.789 11.572">
  <g id="Group_50450" data-name="Group 50450" transform="translate(-39.451)">
    <g id="Group_50451" data-name="Group 50451" transform="translate(39.451)">
      <g id="Group_50450-2" data-name="Group 50450">
        <path id="Path_132403" data-name="Path 132403" d="M47.806,1.433a4.894,4.894,0,0,0-8.355,3.461c0,2.645,2.5,4.844,3.844,6.026.187.164.348.306.476.426a.843.843,0,0,0,1.148,0c.128-.12.29-.262.476-.426,1.343-1.182,3.844-3.381,3.844-6.026A4.862,4.862,0,0,0,47.806,1.433Zm-2.858,8.978c-.191.168-.356.313-.491.44a.164.164,0,0,1-.223,0c-.136-.127-.3-.272-.491-.44C42.48,9.3,40.129,7.232,40.129,4.894a4.216,4.216,0,0,1,8.433,0C48.562,7.232,46.211,9.3,44.948,10.411Z" transform="translate(-39.451 0)" fill="#6bbf9e"/>
      </g>
    </g>
    <g id="Group_50453" data-name="Group 50453" transform="translate(42.188 2.553)">
      <g id="Group_50452" data-name="Group 50452">
        <path id="Path_132404" data-name="Path 132404" d="M162.727,112.938a2.157,2.157,0,1,0,2.157,2.157A2.159,2.159,0,0,0,162.727,112.938Zm0,3.636a1.479,1.479,0,1,1,1.479-1.479A1.481,1.481,0,0,1,162.727,116.574Z" transform="translate(-160.57 -112.938)" fill="#6bbf9e"/>
      </g>
    </g>
  </g>
</svg>
