<svg id="Group_50462" data-name="Group 50462" xmlns="http://www.w3.org/2000/svg" width="12.294" height="12.294" viewBox="0 0 12.294 12.294">
  <g id="Group_50457" data-name="Group 50457" transform="translate(1.825 2.545)">
    <g id="Group_50456" data-name="Group 50456">
      <path id="Path_132405" data-name="Path 132405" d="M78.872,109.891l-.72-3.6A.36.36,0,0,0,77.8,106h-.72a.36.36,0,0,0-.353.29l-.72,3.6a.36.36,0,0,0,.706.141l.23-1.151h.994l.23,1.151a.36.36,0,1,0,.706-.141Zm-1.787-1.73.288-1.441h.13l.288,1.441Z" transform="translate(-75.998 -106)" fill="#6bbf9e"/>
    </g>
  </g>
  <g id="Group_50459" data-name="Group 50459" transform="translate(7.228 4.706)">
    <g id="Group_50458" data-name="Group 50458">
      <path id="Path_132406" data-name="Path 132406" d="M304.242,196.72h-1.081v-.36a.36.36,0,1,0-.72,0v.36H301.36a.36.36,0,1,0,0,.72h.087a4.506,4.506,0,0,0,.854,1.58c-.277.253-.557.461-.806.66a.36.36,0,0,0,.45.563c.251-.2.551-.424.856-.7.3.279.605.5.856.7a.36.36,0,0,0,.45-.562c-.249-.2-.529-.407-.806-.66a4.506,4.506,0,0,0,.854-1.58h.087a.36.36,0,0,0,0-.72Zm-1.441,1.771a3.8,3.8,0,0,1-.593-1.053h1.185A3.794,3.794,0,0,1,302.8,198.491Z" transform="translate(-301 -196)" fill="#6bbf9e"/>
    </g>
  </g>
  <g id="Group_50461" data-name="Group 50461">
    <g id="Group_50460" data-name="Group 50460">
      <path id="Path_132407" data-name="Path 132407" d="M11.214,2.185h-5.2L5.863.947A1.082,1.082,0,0,0,4.791,0H1.081A1.082,1.082,0,0,0,0,1.081V9.029a1.082,1.082,0,0,0,1.081,1.081H4.118l.152,1.239a1.083,1.083,0,0,0,1.072.947h5.871a1.082,1.082,0,0,0,1.081-1.081V3.266A1.082,1.082,0,0,0,11.214,2.185ZM1.081,9.389a.361.361,0,0,1-.36-.36V1.081a.361.361,0,0,1,.36-.36h3.71a.361.361,0,0,1,.357.315L6.19,9.389Zm3.883,1.7-.12-.979H5.81Zm6.61.126a.361.361,0,0,1-.36.36H5.5L6.867,9.988A.36.36,0,0,0,6.954,9.7L6.107,2.906h5.107a.361.361,0,0,1,.36.36Z" fill="#6bbf9e"/>
    </g>
  </g>
</svg>
