<svg xmlns="http://www.w3.org/2000/svg" width="12.988" height="12.988" viewBox="0 0 12.988 12.988">
  <g id="Group_50533" data-name="Group 50533" transform="translate(0 -0.001)">
    <path id="Path_132428" data-name="Path 132428" d="M6.494,0a6.494,6.494,0,1,0,6.494,6.494A6.494,6.494,0,0,0,6.494,0Zm0,1.942A2.148,2.148,0,1,1,4.346,4.091,2.148,2.148,0,0,1,6.494,1.943Zm0,9.348a4.766,4.766,0,0,1-3.1-1.144.915.915,0,0,1-.321-.7A2.166,2.166,0,0,1,5.245,7.285h2.5A2.163,2.163,0,0,1,9.918,9.451a.913.913,0,0,1-.321.7A4.764,4.764,0,0,1,6.493,11.291Z" fill="#6bbf9e"/>
  </g>
</svg>
