<svg id="Group_50535" data-name="Group 50535" xmlns="http://www.w3.org/2000/svg" width="12.988" height="12.988" viewBox="0 0 12.988 12.988">
  <g id="Group_50534" data-name="Group 50534">
    <path id="Path_132429" data-name="Path 132429" d="M6.494,12.988A6.494,6.494,0,1,0,0,6.494,6.5,6.5,0,0,0,6.494,12.988Zm0-12.122A5.628,5.628,0,1,1,.866,6.494,5.633,5.633,0,0,1,6.494.866Z" fill="#707070"/>
    <path id="Path_132430" data-name="Path 132430" d="M169.994,77.824a.426.426,0,0,0,.271.1.433.433,0,0,0,.271-.771l-2-1.6V72.291a.433.433,0,0,0-.866,0v3.463a.434.434,0,0,0,.162.338Z" transform="translate(-161.606 -69.26)" fill="#707070"/>
  </g>
</svg>
