<svg xmlns="http://www.w3.org/2000/svg" width="66.875" height="49.375" viewBox="0 0 66.875 49.375">
  <g id="Group_50395" data-name="Group 50395" transform="translate(-796.551 -1238.409)" opacity="0.212">
    <path id="Path_132382" data-name="Path 132382" d="M0,48.534H16.22C15.943,60.356,12.59,61.7,8.379,62.081l-1.624.2v13l1.872-.1c5.5-.309,11.578-1.3,15.634-6.308,3.556-4.389,5.123-11.561,5.123-22.569V25.9H0Z" transform="translate(796.551 1212.504)" fill="#6bbf9e"/>
    <path id="Path_132383" data-name="Path 132383" d="M111,25.9V48.534h16c-.277,11.821-3.522,13.163-7.733,13.546l-1.516.2v13l1.764-.1c5.5-.309,11.633-1.3,15.689-6.308,3.555-4.389,5.177-11.561,5.177-22.569V25.9Z" transform="translate(723.041 1212.504)" fill="#6bbf9e"/>
  </g>
</svg>
