<svg xmlns="http://www.w3.org/2000/svg" width="13.364" height="13.878" viewBox="0 0 13.364 13.878">
  <g id="Group_48582" data-name="Group 48582" transform="translate(-5.988 0)">
    <g id="Group_48582-2" data-name="Group 48582" transform="translate(5.988 0)">
      <path id="Path_127384" data-name="Path 127384" d="M7.828,13.878h9.684a1.842,1.842,0,0,0,1.84-1.84V2.868a1.842,1.842,0,0,0-1.84-1.84h-.73V.514a.514.514,0,0,0-1.028,0v.514H9.586V.514a.514.514,0,0,0-1.028,0v.514h-.73a1.842,1.842,0,0,0-1.84,1.84v9.17a1.842,1.842,0,0,0,1.84,1.84ZM7.016,2.868a.814.814,0,0,1,.812-.812h.73V2.57a.514.514,0,0,0,1.028,0V2.056h6.168V2.57a.514.514,0,0,0,1.028,0V2.056h.73a.814.814,0,0,1,.812.812v1.5H7.016Zm0,2.529H18.324v6.641a.814.814,0,0,1-.812.812H7.828a.814.814,0,0,1-.812-.812Z" transform="translate(-5.988 0)" fill="#fdec07"/>
    </g>
  </g>
</svg>
