<svg xmlns="http://www.w3.org/2000/svg" width="100" height="100" viewBox="0 0 100 100">
  <g id="Group_50318" data-name="Group 50318" transform="translate(-633 -4803)">
    <g id="Ellipse_2494" data-name="Ellipse 2494" transform="translate(633 4803)" fill="#fff" stroke="#707070" stroke-width="1" opacity="0.454">
      <circle cx="50" cy="50" r="50" stroke="none"/>
      <circle cx="50" cy="50" r="49.5" fill="none"/>
    </g>
    <g id="Ellipse_2493" data-name="Ellipse 2493" transform="translate(662 4832)" fill="#fff" stroke="#707070" stroke-width="1">
      <circle cx="21.5" cy="21.5" r="21.5" stroke="none"/>
      <circle cx="21.5" cy="21.5" r="21" fill="none"/>
    </g>
    <path id="Path_132364" data-name="Path 132364" d="M38.25,0A38.25,38.25,0,1,0,76.5,38.25,38.25,38.25,0,0,0,38.25,0ZM51.47,40.278,32.345,52.231A2.391,2.391,0,0,1,28.688,50.2V26.3a2.391,2.391,0,0,1,3.658-2.028L51.47,36.222a2.391,2.391,0,0,1,0,4.055Z" transform="translate(644.75 4814.75)" fill="#4a90e2"/>
  </g>
</svg>
