<svg id="Group_19392" data-name="Group 19392" xmlns="http://www.w3.org/2000/svg" xmlns:xlink="http://www.w3.org/1999/xlink" width="8.611" height="8.911" viewBox="0 0 8.611 8.911">
  <defs>
    <clipPath id="clip-path">
      <rect id="Rectangle_7558" data-name="Rectangle 7558" width="8.611" height="8.911"/>
    </clipPath>
  </defs>
  <g id="Group_18397" data-name="Group 18397" clip-path="url(#clip-path)">
    <path id="Path_85698" data-name="Path 85698" d="M8.611,1.777V7.8a.665.665,0,0,0-.017.075,1.184,1.184,0,0,1-.88,1l-.131.036H1.028A.2.2,0,0,0,.99,8.894a1.166,1.166,0,0,1-.942-.862C.025,7.955.016,7.875,0,7.8V1.76a.251.251,0,0,0,.016-.048A1.157,1.157,0,0,1,.523.868,1.218,1.218,0,0,1,1.307.662c.115.005.23,0,.351,0,0-.107,0-.2,0-.3A.335.335,0,0,1,1.986,0a.329.329,0,0,1,.336.36c0,.1,0,.2,0,.293H6.29c0-.117,0-.227,0-.336A.3.3,0,0,1,6.415.073.314.314,0,0,1,6.759.033a.322.322,0,0,1,.193.3c0,.109,0,.218,0,.333.166,0,.32,0,.473,0a1.178,1.178,0,0,1,1.141.886c.02.075.03.152.045.228M.673,3.47v.095c0,1.371,0,2.742,0,4.114a.554.554,0,0,0,.577.574q3.058-.009,6.117,0a.553.553,0,0,0,.578-.574c-.007-1.371,0-2.742,0-4.114,0-.031,0-.061-.005-.1ZM.678,2.8H7.935c0-.338.006-.668,0-1a.471.471,0,0,0-.387-.454,4.6,4.6,0,0,0-.593-.005c0,.1,0,.208,0,.315a.333.333,0,0,1-.44.31.325.325,0,0,1-.221-.294c0-.114,0-.229,0-.343H2.322c0,.048,0,.091,0,.134a1.625,1.625,0,0,1-.013.277.328.328,0,0,1-.347.243.337.337,0,0,1-.3-.327c0-.109,0-.218,0-.332H1.229a.518.518,0,0,0-.556.553c0,.281,0,.562,0,.844,0,.025,0,.05,0,.077" transform="translate(0 0.001)"/>
  </g>
</svg>
