<svg xmlns="http://www.w3.org/2000/svg" width="34.805" height="33.128" viewBox="0 0 34.805 33.128">
  <g id="Group_20537" data-name="Group 20537" transform="translate(-803 -393)">
    <rect id="Rectangle_9084" data-name="Rectangle 9084" width="34.805" height="33.128" rx="16.564" transform="translate(803 393)" fill="#f7f7f7" opacity="0.917"/>
    <g id="Group_20532" data-name="Group 20532" transform="translate(811.696 401.471)">
      <g id="Group_20536" data-name="Group 20536" transform="translate(0 0)">
        <path id="Path_85704" data-name="Path 85704" d="M446.377,275.792c-.269.427-.449.491-.942.33l-.787-.259c-.064-.021-.13-.039-.193-.063a.578.578,0,0,1,.366-1.1c.383.117.761.247,1.143.366a.672.672,0,0,1,.413.417Z" transform="translate(-428.994 -265.352)" fill="#e1003e"/>
        <path id="Path_85705" data-name="Path 85705" d="M0,275.6a.753.753,0,0,1,.556-.468c.314-.09.622-.2.934-.3a.588.588,0,0,1,.784.354.581.581,0,0,1-.416.75c-.3.1-.611.2-.916.3-.493.16-.676.1-.942-.33Z" transform="translate(0 -265.467)" fill="#e1003e"/>
        <path id="Path_85706" data-name="Path 85706" d="M239.256,420.72a.649.649,0,0,1-.446-.711c.017-.343,0-.688,0-1.032a.578.578,0,1,1,1.155,0c0,.339-.013.678,0,1.015a.656.656,0,0,1-.446.728Z" transform="translate(-230.7 -404.18)" fill="#e1003e"/>
        <path id="Path_85707" data-name="Path 85707" d="M76.863,31.827a1.321,1.321,0,0,1-.438.991q-.967.939-1.933,1.879a.24.24,0,0,0-.087.246c.159.893.307,1.788.46,2.682a1.355,1.355,0,0,1-1.96,1.453q-1.19-.612-2.369-1.244a.353.353,0,0,0-.384,0c-.765.413-1.542.8-2.305,1.218a1.373,1.373,0,0,1-2-.781,2.111,2.111,0,0,1,.03-.987c.131-.778.262-1.555.4-2.331a.252.252,0,0,0-.093-.26q-.975-.943-1.944-1.892a1.353,1.353,0,0,1,.086-2.043,1.876,1.876,0,0,1,.982-.326c.805-.114,1.61-.231,2.415-.344a.225.225,0,0,0,.183-.148c.39-.794.79-1.584,1.175-2.381a1.366,1.366,0,0,1,2.516-.008c.386.8.786,1.586,1.173,2.382A.262.262,0,0,0,73,30.09c.917.131,1.834.256,2.748.4a1.316,1.316,0,0,1,1.115,1.333M66.956,37.86a.184.184,0,0,0,.069.168c.1.085.2.028.3-.022.865-.454,1.734-.9,2.591-1.366a.811.811,0,0,1,.858,0c.857.466,1.726.912,2.59,1.366.091.048.183.1.284.027s.08-.162.062-.261c-.168-.971-.327-1.944-.5-2.913a.777.777,0,0,1,.242-.775c.714-.676,1.414-1.367,2.118-2.053.076-.074.171-.143.126-.272s-.157-.134-.263-.149c-1-.146-2-.3-3-.435a.647.647,0,0,1-.53-.39c-.369-.754-.744-1.506-1.116-2.258-.082-.167-.164-.334-.247-.5a.213.213,0,0,0-.188-.147c-.11,0-.16.068-.2.153l-.044.091q-.66,1.334-1.319,2.668a.639.639,0,0,1-.517.383c-.76.106-1.519.221-2.279.331-.257.037-.514.071-.771.109-.1.014-.191.039-.227.149s.032.17.1.235l.1.095c.689.669,1.375,1.342,2.069,2.006a.711.711,0,0,1,.236.7c-.081.42-.149.843-.222,1.265-.1.594-.2,1.188-.307,1.8" transform="translate(-61.648 -25.813)" fill="#6e1588"/>
        <path id="Path_85708" data-name="Path 85708" d="M84.572,2.131a.52.52,0,0,1-.4-.23c-.236-.317-.469-.635-.7-.958A.573.573,0,0,1,83.6.133a.57.57,0,0,1,.8.116c.247.322.484.652.716.985a.538.538,0,0,1,.022.607.582.582,0,0,1-.565.29" transform="translate(-80.528 -0.018)" fill="#e1003e"/>
        <path id="Path_85709" data-name="Path 85709" d="M374.361,2.111a.567.567,0,0,1-.5-.862A12.835,12.835,0,0,1,374.625.2.561.561,0,0,1,375.4.122a.565.565,0,0,1,.137.77c-.235.344-.485.679-.736,1.012a.519.519,0,0,1-.444.207" transform="translate(-361.081 0.001)" fill="#e1003e"/>
      </g>
    </g>
  </g>
</svg>
