<svg xmlns="http://www.w3.org/2000/svg" width="34.805" height="33.128" viewBox="0 0 34.805 33.128">
  <g id="Group_20537" data-name="Group 20537" transform="translate(-803 -393)">
    <rect id="Rectangle_9084" data-name="Rectangle 9084" width="34.805" height="33.128" rx="16.564" transform="translate(803 393)" fill="#f7f7f7" opacity="0.917"/>
    <g id="Group_20554" data-name="Group 20554" transform="translate(813.21 402.384)">
      <g id="Group_20536" data-name="Group 20536" transform="translate(0 0)">
        <path id="Path_85710" data-name="Path 85710" d="M14.386,1.067V2.329a1.039,1.039,0,0,0-.025.135A10.671,10.671,0,0,1,14.217,3.7,9.607,9.607,0,0,1,13.1,6.919,10.964,10.964,0,0,1,10.67,9.766c-.048.041-.1.071-.108.151-.044.629-.1,1.257-.138,1.886a1.236,1.236,0,0,1-.605,1.057c-.271.166-.528.354-.8.523a17.14,17.14,0,0,1-1.547.976H7.137c-.013-.033-.046-.026-.071-.035a.764.764,0,0,1-.521-.622c-.018-.11-.036-.221-.053-.331q-.1-.657-.2-1.313c-.012-.079-.033-.12-.133-.1a1.035,1.035,0,0,1-.94-.293Q3.952,10.415,2.7,9.153a1.024,1.024,0,0,1-.3-.911c.02-.126-.023-.15-.127-.166C1.766,8,1.254,7.921.741,7.846a.812.812,0,0,1-.633-.388C.067,7.387.036,7.31,0,7.236V6.9a1.963,1.963,0,0,1,.115-.235c.491-.745.98-1.491,1.479-2.23a1.006,1.006,0,0,1,.773-.452c.68-.059,1.361-.112,2.042-.163a.233.233,0,0,0,.177-.088c.155-.181.312-.361.477-.533A10.124,10.124,0,0,1,8.014,1,10.357,10.357,0,0,1,11.082.108a12.329,12.329,0,0,1,2.143-.1,1.127,1.127,0,0,1,1.119.867c.016.063,0,.133.042.189M12.494.843c-.4.017-.866.043-1.326.106a8.806,8.806,0,0,0-2.923.879,10.107,10.107,0,0,0-4.28,4.349c-.048.091.008.125.056.173q2,2,4,4a.159.159,0,0,0,.225.03A10.564,10.564,0,0,0,10.59,8.7a9.212,9.212,0,0,0,2.93-7.572.255.255,0,0,0-.266-.267,7.345,7.345,0,0,0-.761-.021M7.227,10.807,3.558,7.144a7.529,7.529,0,0,0-.3,1.111.389.389,0,0,0,.126.388c.728.72,1.45,1.446,2.176,2.167.37.368.263.358.829.239a5.189,5.189,0,0,0,.839-.243m2.435-.255c-.021,0-.032,0-.038,0l-.178.111a9.4,9.4,0,0,1-2.106,1c-.236.077-.241.077-.2.327.072.484.15.967.225,1.453a.2.2,0,0,0,.048-.014l2.024-1.337a.274.274,0,0,0,.126-.222c.012-.163.03-.325.042-.488.021-.277.041-.554.061-.832M.919,7.011c.535.084,1.07.167,1.6.254.1.016.118-.04.139-.111A9.017,9.017,0,0,1,3.593,5.11c.077-.126.156-.251.247-.4-.447.035-.869.073-1.292.1a.392.392,0,0,0-.329.2C1.81,5.636,1.4,6.258.984,6.881a.264.264,0,0,0-.065.13" transform="translate(0 0)" fill="#6e1588"/>
        <path id="Path_85711" data-name="Path 85711" d="M0,390.156a1.175,1.175,0,0,1,.238-.305q1.242-1.237,2.481-2.476a.47.47,0,0,1,.328-.165.4.4,0,0,1,.39.222.411.411,0,0,1-.042.46,1.028,1.028,0,0,1-.106.112Q2.07,389.223.85,390.442a1.226,1.226,0,0,1-.316.247H.309A.575.575,0,0,1,0,390.38Z" transform="translate(0 -376.33)" fill="#e1003e"/>
        <path id="Path_85712" data-name="Path 85712" d="M0,344.01a1.028,1.028,0,0,1,.255-.343q.613-.606,1.22-1.218a.433.433,0,0,1,.445-.135.415.415,0,0,1,.2.684q-.692.714-1.409,1.406a.415.415,0,0,1-.668-.141c-.014-.028-.007-.067-.043-.084Z" transform="translate(0 -332.68)" fill="#e1003e"/>
        <path id="Path_85713" data-name="Path 85713" d="M90.222,434.088c-.021-.038-.065-.033-.1-.049a.414.414,0,0,1-.129-.66q.695-.712,1.408-1.407a.421.421,0,0,1,.614.57,1.559,1.559,0,0,1-.144.153c-.377.377-.755.751-1.13,1.13a1.069,1.069,0,0,1-.354.263Z" transform="translate(-87.356 -419.729)" fill="#e1003e"/>
        <path id="Path_85714" data-name="Path 85714" d="M277.826,90.227a2.1,2.1,0,1,1,2.112-2.1,2.1,2.1,0,0,1-2.112,2.1m-1.259-2.111a1.26,1.26,0,1,0,1.265-1.248,1.254,1.254,0,0,0-1.265,1.248" transform="translate(-267.972 -83.602)" fill="#e1003e"/>
      </g>
    </g>
  </g>
</svg>
