<?xml version="1.0" encoding="UTF-8"?>
<svg xmlns="http://www.w3.org/2000/svg" xmlns:xlink="http://www.w3.org/1999/xlink" width="28px" height="27px" viewBox="0 0 28 27" version="1.1">
<g id="surface1">
<path style=" stroke:none;fill-rule:nonzero;fill:rgb(0%,0%,0%);fill-opacity:1;" d="M 4.652344 0.449219 C 4.296875 1.035156 5.714844 3.148438 6.46875 3.148438 C 7.488281 3.148438 7.53125 2.386719 6.601562 1.171875 C 5.625 -0.0898438 5.09375 -0.269531 4.652344 0.449219 Z M 4.652344 0.449219 "/>
<path style=" stroke:none;fill-rule:nonzero;fill:rgb(0%,0%,0%);fill-opacity:1;" d="M 21.089844 0.988281 C 20.203125 2.25 20.203125 3.148438 21.042969 3.148438 C 21.839844 3.148438 23.214844 1.125 22.816406 0.449219 C 22.375 -0.269531 21.839844 -0.0898438 21.089844 0.988281 Z M 21.089844 0.988281 "/>
<path style=" stroke:none;fill-rule:nonzero;fill:rgb(0%,0%,0%);fill-opacity:1;" d="M 12.847656 1.800781 C 12.449219 2.023438 11.652344 3.238281 11.074219 4.5 C 10.410156 5.941406 9.703125 6.839844 9.125 6.976562 C 8.59375 7.066406 7.398438 7.289062 6.425781 7.425781 C 2.925781 8.011719 2.613281 9.585938 5.492188 12.601562 L 7.488281 14.625 L 7.042969 16.785156 C 6.070312 21.285156 7.53125 22.5 11.339844 20.429688 L 13.691406 19.171875 L 16.304688 20.429688 C 18.519531 21.511719 19.050781 21.601562 19.9375 21.148438 C 20.867188 20.65625 20.910156 20.429688 20.644531 17.414062 L 20.335938 14.175781 L 22.109375 12.375 C 23.96875 10.574219 24.410156 9.046875 23.347656 8.144531 C 22.992188 7.875 21.664062 7.515625 20.335938 7.335938 C 18.03125 6.976562 17.898438 6.886719 16.746094 4.726562 C 15.683594 2.746094 14.441406 1.304688 13.777344 1.351562 C 13.644531 1.351562 13.203125 1.574219 12.847656 1.800781 Z M 15.375 6.03125 C 16.570312 8.503906 17.324219 9 20.113281 9 C 22.242188 9.046875 22.242188 9.675781 20.113281 11.835938 C 18.828125 13.140625 18.164062 14.175781 18.339844 14.625 C 18.476562 14.984375 18.695312 16.335938 18.875 17.59375 L 19.183594 19.890625 L 16.4375 18.449219 L 13.644531 17.054688 L 11.207031 18.449219 C 9.878906 19.214844 8.683594 19.753906 8.550781 19.621094 C 8.417969 19.484375 8.550781 18.136719 8.816406 16.605469 L 9.390625 13.816406 L 7.308594 11.699219 C 5.007812 9.316406 4.960938 9.359375 8.992188 8.773438 C 11.03125 8.503906 11.164062 8.414062 12.316406 6.03125 C 12.9375 4.679688 13.644531 3.601562 13.824219 3.601562 C 14.042969 3.601562 14.707031 4.679688 15.375 6.03125 Z M 15.375 6.03125 "/>
<path style=" stroke:none;fill-rule:nonzero;fill:rgb(0%,0%,0%);fill-opacity:1;" d="M 0.621094 15.929688 C 0.0429688 16.378906 -0.0898438 16.738281 0.265625 17.054688 C 0.886719 17.730469 3.542969 16.785156 3.542969 15.929688 C 3.542969 15.121094 1.726562 15.121094 0.621094 15.929688 Z M 0.621094 15.929688 "/>
<path style=" stroke:none;fill-rule:nonzero;fill:rgb(0%,0%,0%);fill-opacity:1;" d="M 23.925781 15.929688 C 23.925781 16.605469 26.449219 17.683594 27.070312 17.28125 C 27.824219 16.828125 27.46875 15.839844 26.492188 15.570312 C 24.855469 15.121094 23.925781 15.253906 23.925781 15.929688 Z M 23.925781 15.929688 "/>
<path style=" stroke:none;fill-rule:nonzero;fill:rgb(0%,0%,0%);fill-opacity:1;" d="M 13.023438 23.535156 C 12.625 24.660156 13.023438 26.324219 13.734375 26.324219 C 14.175781 26.324219 14.398438 25.875 14.398438 24.796875 C 14.398438 23.175781 13.46875 22.363281 13.023438 23.535156 Z M 13.023438 23.535156 "/>
</g>
</svg>
