<svg xmlns="http://www.w3.org/2000/svg" xmlns:xlink="http://www.w3.org/1999/xlink" width="98.545" height="46.665" viewBox="0 0 98.545 46.665">
  <defs>
    <clipPath id="clip-path">
      <rect id="Rectangle_8272" data-name="Rectangle 8272" width="98.545" height="46.665" fill="#fff" stroke="#fff" stroke-width="1"/>
    </clipPath>
  </defs>
  <g id="Group_19885" data-name="Group 19885" opacity="0.31">
    <g id="Group_19885-2" data-name="Group 19885" clip-path="url(#clip-path)">
      <path id="Path_99879" data-name="Path 99879" d="M422.06,12.343c-.55.381-1.111.746-1.648,1.144-2.142,1.591-4.273,3.2-6.414,4.788q-3.624,2.694-7.259,5.375-3.591,2.652-7.189,5.3c-.91.671-1.8,1.377-2.734,2.006a6.73,6.73,0,0,1-7.631-.3c-2.339-1.807-4.744-3.529-7.117-5.291q-3.246-2.409-6.488-4.824-3.562-2.641-7.13-5.272-1.976-1.461-3.954-2.919V5.613c.035-.037.1-.07.1-.111A6.56,6.56,0,0,1,371.017.017Q392.507-.023,414,.009c.7,0,1.406.064,2.109.108a6.5,6.5,0,0,1,5.643,4.769c.076.323.207.634.312.95Zm-28.9-7.852h-9.05q-6.436,0-12.872,0a2.149,2.149,0,0,0-2.231,1.98c-.069,1.1-.025,2.2-.006,3.307a.635.635,0,0,0,.235.429c1.049.791,2.117,1.559,3.171,2.344q5.164,3.852,10.323,7.711c2.9,2.16,5.823,4.29,8.712,6.466,1.432,1.079,2.251.962,3.457.082,2-1.461,3.961-2.985,5.954-4.462,2.988-2.214,5.992-4.405,8.985-6.613q3.676-2.713,7.332-5.453a1.091,1.091,0,0,0,.374-.726c.046-.839.038-1.682.008-2.522a3.45,3.45,0,0,0-.205-1.118,2.281,2.281,0,0,0-2.375-1.427q-10.9-.007-21.81,0" transform="translate(-323.516 -0.001)" fill="#fff" stroke="#fff" stroke-width="1"/>
      <path id="Path_99880" data-name="Path 99880" d="M364.5,159.771c.431.262.881.5,1.288.791.948.686,1.854,1.431,2.821,2.088a.786.786,0,0,1,.392.762c0,6.074.012,12.148-.016,18.222a2.38,2.38,0,0,0,2.267,2.265q21.833-.028,43.666.006a2.48,2.48,0,0,0,2.653-2.669c-.011-5.943,0-11.886-.013-17.829a.869.869,0,0,1,.378-.819c1.3-.934,2.586-1.894,3.88-2.84a.911.911,0,0,1,.248-.087v23.106a1.7,1.7,0,0,0-.219.407,6.466,6.466,0,0,1-3.565,4.494,14.669,14.669,0,0,1-2.062.707h-46.1c-.037-.035-.069-.1-.11-.1a6.558,6.558,0,0,1-4.289-2.721,9.114,9.114,0,0,1-1.222-2.785Z" transform="translate(-323.516 -141.708)" fill="#fff" stroke="#fff" stroke-width="1"/>
      <line id="Line_1218" data-name="Line 1218" x2="25.522" transform="translate(6.689 12.318)" fill="none" stroke="#fff" stroke-miterlimit="10" stroke-width="7"/>
      <line id="Line_1219" data-name="Line 1219" x2="32.211" transform="translate(0 21.312)" fill="none" stroke="#fff" stroke-miterlimit="10" stroke-width="7"/>
      <line id="Line_1220" data-name="Line 1220" x2="17.055" transform="translate(15.156 30.307)" fill="none" stroke="#fff" stroke-miterlimit="10" stroke-width="7"/>
    </g>
  </g>
</svg>
