<svg id="Component_299_1" data-name="Component 299 – 1" xmlns="http://www.w3.org/2000/svg" width="20.896" height="12.073" viewBox="0 0 20.896 12.073">
  <path id="Path_85717" data-name="Path 85717" d="M24.038,24H9.643a1.863,1.863,0,0,0-1.857,1.857v.7a.464.464,0,0,0,.929,0v-.7a1.165,1.165,0,0,1,.046-.279l5.2,4.458-5.2,4.458a1.165,1.165,0,0,1-.046-.279v-.7a.464.464,0,0,0-.929,0v.7a1.863,1.863,0,0,0,1.857,1.857H24.038A1.863,1.863,0,0,0,25.9,34.216V25.857A1.863,1.863,0,0,0,24.038,24Zm-14.58.952a.453.453,0,0,1,.186-.023H24.038a.453.453,0,0,1,.186.023l-7.081,6.06a.488.488,0,0,1-.6,0Zm14.58,10.192H9.643a.453.453,0,0,1-.186-.023l5.224-4.481,1.254,1.091a1.351,1.351,0,0,0,1.811,0L19,30.64l5.224,4.481A.453.453,0,0,1,24.038,35.144Zm.929-.929a1.165,1.165,0,0,1-.046.279l-5.2-4.458,5.2-4.458a1.165,1.165,0,0,1,.046.279ZM6.393,28.876a.466.466,0,0,1,.464-.464H9.643a.464.464,0,1,1,0,.929H6.857A.466.466,0,0,1,6.393,28.876Zm3.25,2.786H5.464a.464.464,0,1,1,0-.929H9.643a.464.464,0,1,1,0,.929Z" transform="translate(-5 -24)"/>
</svg>
