<svg xmlns="http://www.w3.org/2000/svg" width="18.084" height="16.892" viewBox="0 0 18.084 16.892">
  <g id="Component_300_1" data-name="Component 300 – 1" transform="translate(0.075 0.075)">
    <path id="Path_85710" data-name="Path 85710" d="M16.332,37.886H1.6a1.6,1.6,0,0,1-1.6-1.6V27.125a1.6,1.6,0,0,1,1.6-1.6h8.664a.35.35,0,1,1,0,.7H1.6a.9.9,0,0,0-.9.9v9.159a.9.9,0,0,0,.9.9H16.332a.9.9,0,0,0,.9-.9V30.861a.35.35,0,1,1,.7,0v5.423a1.6,1.6,0,0,1-1.6,1.6Z" transform="translate(0 -24.331)" stroke="#000" stroke-width="0.15"/>
    <path id="Path_85711" data-name="Path 85711" d="M136.119,195.85a.35.35,0,0,1-.3-.161l-2.018-3.151a.35.35,0,0,1,.59-.378l2.017,3.15a.35.35,0,0,1-.295.539Z" transform="translate(-124.38 -179.145)" stroke="#000" stroke-width="0.15"/>
    <path id="Path_85712" data-name="Path 85712" d="M83.8,195.844a.35.35,0,0,1-.295-.539l2.018-3.15a.35.35,0,0,1,.59.378l-2.018,3.151A.35.35,0,0,1,83.8,195.844Z" transform="translate(-77.6 -179.138)" stroke="#000" stroke-width="0.15"/>
    <path id="Path_85713" data-name="Path 85713" d="M70.521,238.193H61.913a.35.35,0,1,1,0-.7h8.608a.35.35,0,1,1,0,.7Z" transform="translate(-57.25 -221.45)" stroke="#000" stroke-width="0.15"/>
    <path id="Path_85714" data-name="Path 85714" d="M101.541,65.842a1.95,1.95,0,1,1,1.95-1.95A1.95,1.95,0,0,1,101.541,65.842Zm0-3.2a1.25,1.25,0,1,0,1.25,1.25A1.25,1.25,0,0,0,101.541,62.643Z" transform="translate(-92.614 -58.199)" stroke="#000" stroke-width="0.15"/>
    <path id="Path_85715" data-name="Path 85715" d="M93.323,111.68h-4.8a.35.35,0,0,1-.35-.35v-.96a2.75,2.75,0,1,1,5.5,0v.96A.35.35,0,0,1,93.323,111.68Zm-4.449-.7h4.1v-.609a2.05,2.05,0,1,0-4.1,0Z" transform="translate(-81.996 -100.677)" stroke="#000" stroke-width="0.15"/>
    <path id="Path_85716" data-name="Path 85716" d="M162.68,15.442a.35.35,0,0,1-.35-.35v-1H162a1.125,1.125,0,0,1-1.124-1.124V9.632A1.125,1.125,0,0,1,162,8.508h4.417a1.125,1.125,0,0,1,1.124,1.124v3.333a1.125,1.125,0,0,1-1.124,1.124h-2.234l-1.251,1.251A.35.35,0,0,1,162.68,15.442ZM162,9.209a.424.424,0,0,0-.423.423v3.333a.424.424,0,0,0,.423.423h.684a.35.35,0,0,1,.35.35v.508l.756-.756a.35.35,0,0,1,.248-.1h2.379a.424.424,0,0,0,.423-.423V9.632a.424.424,0,0,0-.423-.423Z" transform="translate(-149.602 -8.508)" stroke="#000" stroke-width="0.15"/>
  </g>
</svg>
